<?xml version="1.0" encoding="UTF-8" standalone="no"?>
<!DOCTYPE svg PUBLIC "-//W3C//DTD SVG 1.1//EN" "http://www.w3.org/Graphics/SVG/1.1/DTD/svg11.dtd">
<svg xmlns="http://www.w3.org/2000/svg" xmlns:xlink="http://www.w3.org/1999/xlink" version="1.1" width="204.619pt" height="267.522pt" viewBox="0 0 204.619 267.522">
<g enable-background="new">
<path transform="matrix(1,0,0,-1,.199,1431.981)" stroke-width=".3985" stroke-linecap="butt" stroke-dasharray="2.98883,2.98883" stroke-miterlimit="10" stroke-linejoin="miter" fill="none" stroke="#bfbfbf" d="M 0 1171.4199 L 0 1425.4688 M 40.84467 1171.4199 L 40.84467 1425.4688 M 81.68935 1171.4199 L 81.68935 1425.4688 M 122.53401 1171.4199 L 122.53401 1425.4688 M 163.3787 1171.4199 L 163.3787 1425.4688 M 204.22338 1171.4199 L 204.22338 1425.4688 "/>
<path transform="matrix(1,0,0,-1,.199,1431.981)" stroke-width=".3985" stroke-linecap="butt" stroke-dasharray="2.98883,2.98883" stroke-miterlimit="10" stroke-linejoin="miter" fill="none" stroke="#bfbfbf" d="M 20.42233 1171.4199 L 20.42233 1425.4688 M 61.267 1171.4199 L 61.267 1425.4688 M 142.95636 1171.4199 L 142.95636 1425.4688 M 183.80103 1171.4199 L 183.80103 1425.4688 "/>
<path transform="matrix(1,0,0,-1,.199,1431.981)" stroke-width=".3985" stroke-linecap="butt" stroke-dasharray="2.98883,2.98883" stroke-miterlimit="10" stroke-linejoin="miter" fill="none" stroke="#bfbfbf" d="M 0 1185.5338 L 204.22338 1185.5338 M 0 1213.7615 L 204.22338 1213.7615 M 0 1241.9891 L 204.22338 1241.9891 M 0 1270.2167 L 204.22338 1270.2167 M 0 1298.4443 L 204.22338 1298.4443 M 0 1326.672 L 204.22338 1326.672 M 0 1354.8997 L 204.22338 1354.8997 M 0 1383.1273 L 204.22338 1383.1273 M 0 1411.355 L 204.22338 1411.355 "/>
<path transform="matrix(1,0,0,-1,.199,1431.981)" stroke-width=".3985" stroke-linecap="butt" stroke-dasharray="2.98883,2.98883" stroke-miterlimit="10" stroke-linejoin="miter" fill="none" stroke="#bfbfbf" d="M 0 1171.4199 L 204.22338 1171.4199 M 0 1199.6476 L 204.22338 1199.6476 M 0 1227.8753 L 204.22338 1227.8753 M 0 1256.1029 L 204.22338 1256.1029 M 0 1312.5582 L 204.22338 1312.5582 M 0 1340.7859 L 204.22338 1340.7859 M 0 1369.0134 L 204.22338 1369.0134 M 0 1397.2411 L 204.22338 1397.2411 M 0 1425.4688 L 204.22338 1425.4688 "/>
<path transform="matrix(1,0,0,-1,.199,1431.981)" stroke-width=".19925" stroke-linecap="butt" stroke-miterlimit="10" stroke-linejoin="miter" fill="none" stroke="#808080" d="M 0 1282.913 L 0 1285.7482 M 40.84467 1282.913 L 40.84467 1285.7482 M 81.68935 1282.913 L 81.68935 1285.7482 M 122.53401 1282.913 L 122.53401 1285.7482 M 163.3787 1282.913 L 163.3787 1285.7482 M 204.22338 1282.913 L 204.22338 1285.7482 "/>
<path transform="matrix(1,0,0,-1,.199,1431.981)" stroke-width=".19925" stroke-linecap="butt" stroke-miterlimit="10" stroke-linejoin="miter" fill="none" stroke="#808080" d="M 20.42233 1282.2044 L 20.42233 1286.4567 M 61.267 1282.2044 L 61.267 1286.4567 M 142.95636 1282.2044 L 142.95636 1286.4567 M 183.80103 1282.2044 L 183.80103 1286.4567 "/>
<path transform="matrix(1,0,0,-1,.199,1431.981)" stroke-width=".19925" stroke-linecap="butt" stroke-miterlimit="10" stroke-linejoin="miter" fill="none" stroke="#808080" d="M 100.69424 1185.5338 L 103.52911 1185.5338 M 100.69424 1213.7615 L 103.52911 1213.7615 M 100.69424 1241.9891 L 103.52911 1241.9891 M 100.69424 1270.2167 L 103.52911 1270.2167 M 100.69424 1298.4443 L 103.52911 1298.4443 M 100.69424 1326.672 L 103.52911 1326.672 M 100.69424 1354.8997 L 103.52911 1354.8997 M 100.69424 1383.1273 L 103.52911 1383.1273 M 100.69424 1411.355 L 103.52911 1411.355 "/>
<path transform="matrix(1,0,0,-1,.199,1431.981)" stroke-width=".19925" stroke-linecap="butt" stroke-miterlimit="10" stroke-linejoin="miter" fill="none" stroke="#808080" d="M 99.98575 1171.4199 L 104.2376 1171.4199 M 99.98575 1199.6476 L 104.2376 1199.6476 M 99.98575 1227.8753 L 104.2376 1227.8753 M 99.98575 1256.1029 L 104.2376 1256.1029 M 99.98575 1312.5582 L 104.2376 1312.5582 M 99.98575 1340.7859 L 104.2376 1340.7859 M 99.98575 1369.0134 L 104.2376 1369.0134 M 99.98575 1397.2411 L 104.2376 1397.2411 M 99.98575 1425.4688 L 104.2376 1425.4688 "/>
<path transform="matrix(1,0,0,-1,.199,1431.981)" stroke-width=".3985" stroke-linecap="butt" stroke-miterlimit="10" stroke-linejoin="miter" fill="none" stroke="#000000" d="M 0 1284.3306 L 202.23085 1284.3306 "/>
<path transform="matrix(1,0,0,-1,202.42986,147.65039)" d="M 1.99252 0 L -1.19551 1.59401 L 0 0 L -1.19551 -1.59401 "/>
<path transform="matrix(1,0,0,-1,.199,1431.981)" stroke-width=".3985" stroke-linecap="butt" stroke-miterlimit="10" stroke-linejoin="miter" fill="none" stroke="#000000" d="M 102.11168 1171.4199 L 102.11168 1423.4762 "/>
<path transform="matrix(0,-1,-1,-0,102.31068,8.504761)" d="M 1.99252 0 L -1.19551 1.59401 L 0 0 L -1.19551 -1.59401 "/>
<symbol id="font_0_1">
<path d="M .57600006 0 C .59300008 0 .611 0 .611 .019999996 C .611 .040000008 .59300008 .040000008 .57600006 .040000008 L .035000005 .040000008 C .018 .040000008 0 .040000008 0 .019999996 C 0 0 .018 0 .035000005 0 L .57600006 0 Z "/>
</symbol>
<use xlink:href="#font_0_1" transform="matrix(9.9626,0,0,-9.9626,15.082896,157.44152)"/>
<symbol id="font_1_6">
<path d="M .266 .165 L .266 .078 C .266 .042000005 .26400004 .031000002 .19000001 .031000002 L .16900002 .031000002 L .16900002 0 C .21000001 .003 .26200003 .003 .30400003 .003 C .34600003 .003 .39900003 .003 .44000004 0 L .44000004 .031000002 L .41900004 .031000002 C .34500004 .031000002 .34300003 .042000005 .34300003 .078 L .34300003 .165 L .44300003 .165 L .44300003 .19600001 L .34300003 .19600001 L .34300003 .651 C .34300003 .671 .34300003 .67700007 .32700003 .67700007 C .31800003 .67700007 .31500004 .67700007 .307 .665 L 0 .19600001 L 0 .165 L .266 .165 M .272 .19600001 L .028 .19600001 L .272 .569 L .272 .19600001 Z "/>
</symbol>
<use xlink:href="#font_1_6" transform="matrix(9.9626,0,0,-9.9626,22.283955,159.73291)"/>
<use xlink:href="#font_0_1" transform="matrix(9.9626,0,0,-9.9626,55.9269,157.44152)"/>
<symbol id="font_1_5">
<path d="M .07700001 .07700001 L .18300002 .18 C .33900003 .31800003 .39900003 .372 .39900003 .47200004 C .39900003 .586 .30900003 .666 .18700002 .666 C .074 .666 0 .574 0 .485 C 0 .42900003 .05 .42900003 .053000008 .42900003 C .07000001 .42900003 .105000007 .441 .105000007 .48200003 C .105000007 .508 .08700001 .53400006 .052000006 .53400006 C .044000005 .53400006 .042000008 .53400006 .039 .53300008 C .062000004 .59800007 .11600001 .63500007 .17400001 .63500007 C .26500003 .63500007 .308 .554 .308 .47200004 C .308 .39200003 .25800003 .31300003 .20300003 .25100003 L .011000004 .037 C 0 .026 0 .024 0 0 L .37100003 0 L .39900003 .17400001 L .374 .17400001 C .36900003 .14400001 .36200003 .1 .352 .085 C .345 .07700001 .279 .07700001 .257 .07700001 L .07700001 .07700001 Z "/>
</symbol>
<use xlink:href="#font_1_5" transform="matrix(9.9626,0,0,-9.9626,63.347135,159.73291)"/>
<use xlink:href="#font_1_5" transform="matrix(9.9626,0,0,-9.9626,141.16114,159.73291)"/>
<use xlink:href="#font_1_6" transform="matrix(9.9626,0,0,-9.9626,181.78595,159.73291)"/>
<use xlink:href="#font_0_1" transform="matrix(9.9626,0,0,-9.9626,84.760898,261.07957)"/>
<symbol id="font_1_8">
<path d="M .121 .47900004 C .075 .509 .071 .54300007 .071 .56000009 C .071 .62100008 .136 .66300007 .20700002 .66300007 C .28000004 .66300007 .344 .61100009 .344 .53900006 C .344 .48200003 .305 .43400005 .245 .39900003 L .121 .47900004 M .26700003 .38400004 C .33900003 .42100004 .388 .47300006 .388 .53900006 C .388 .63100007 .29900003 .688 .208 .688 C .108 .688 .027000003 .614 .027000003 .521 C .027000003 .503 .029 .45800004 .071 .41100005 C .082 .39900003 .11900001 .37400005 .144 .35700003 C .086 .32800005 0 .272 0 .17300001 C 0 .067 .102000009 0 .20700002 0 C .32000003 0 .41500003 .083000008 .41500003 .19000001 C .41500003 .22600001 .404 .27100004 .36600004 .31300003 C .34700004 .33400003 .33100004 .34400005 .26700003 .38400004 M .167 .34200005 L .29000003 .26400004 C .31800003 .245 .365 .215 .365 .154 C .365 .080000009 .29000003 .028 .208 .028 C .122 .028 .050000006 .09 .050000006 .17300001 C .050000006 .231 .082 .29500003 .167 .34200005 Z "/>
</symbol>
<use xlink:href="#font_1_8" transform="matrix(9.9626,0,0,-9.9626,92.101428,263.59016)"/>
<use xlink:href="#font_0_1" transform="matrix(9.9626,0,0,-9.9626,84.760898,232.85253)"/>
<symbol id="font_1_7">
<path d="M .089999999 .35000003 L .089999999 .37400005 C .089999999 .62700006 .21400002 .66300007 .26500003 .66300007 C .28900004 .66300007 .33100004 .65700009 .35300002 .623 C .33800004 .623 .298 .623 .298 .57800009 C .298 .54700008 .32200004 .53200009 .344 .53200009 C .36 .53200009 .39000003 .54100009 .39000003 .58000007 C .39000003 .64000007 .34600003 .688 .263 .688 C .13499999 .688 0 .559 0 .33800004 C 0 .071 .116000007 0 .20900002 0 C .32000003 0 .41500003 .094000007 .41500003 .22600001 C .41500003 .35300005 .32600004 .44900004 .215 .44900004 C .14700002 .44900004 .11000001 .39800004 .089999999 .35000003 M .20900002 .028 C .146 .028 .116000007 .088 .11000001 .103 C .092 .15 .092 .23 .092 .24800001 C .092 .32600004 .124000009 .42600004 .21400002 .42600004 C .23000002 .42600004 .27600003 .42600004 .307 .36400003 C .32500003 .32700003 .32500003 .27600003 .32500003 .22700002 C .32500003 .179 .32500003 .12900001 .30800004 .093 C .27800004 .033000005 .23200003 .028 .20900002 .028 Z "/>
</symbol>
<use xlink:href="#font_1_7" transform="matrix(9.9626,0,0,-9.9626,92.101428,235.3631)"/>
<use xlink:href="#font_0_1" transform="matrix(9.9626,0,0,-9.9626,84.760898,204.62561)"/>
<use xlink:href="#font_1_6" transform="matrix(9.9626,0,0,-9.9626,91.96195,206.917)"/>
<use xlink:href="#font_0_1" transform="matrix(9.9626,0,0,-9.9626,84.760898,176.39757)"/>
<use xlink:href="#font_1_5" transform="matrix(9.9626,0,0,-9.9626,92.18113,178.68897)"/>
<use xlink:href="#font_1_5" transform="matrix(9.9626,0,0,-9.9626,92.18113,122.64992)"/>
<use xlink:href="#font_1_6" transform="matrix(9.9626,0,0,-9.9626,91.96195,94.42297)"/>
<use xlink:href="#font_1_7" transform="matrix(9.9626,0,0,-9.9626,92.101428,66.41412)"/>
<use xlink:href="#font_1_8" transform="matrix(9.9626,0,0,-9.9626,92.101428,38.18721)"/>
<symbol id="font_1_4">
<path d="M .205 .64000007 C .205 .66400006 .205 .666 .18200003 .666 C .120000008 .60200008 .032000007 .60200008 0 .60200008 L 0 .57100006 C .020000004 .57100006 .07900001 .57100006 .13100001 .597 L .13100001 .079 C .13100001 .043 .128 .031000002 .038000004 .031000002 L .0060000049 .031000002 L .0060000049 0 C .04100001 .003 .128 .003 .168 .003 C .20800002 .003 .29500003 .003 .33000005 0 L .33000005 .031000002 L .29800005 .031000002 C .20800002 .031000002 .205 .042000005 .205 .079 L .205 .64000007 Z "/>
</symbol>
<symbol id="font_1_3">
<path d="M .421 .34200005 C .421 .42200003 .416 .50200006 .381 .57600006 C .335 .67200008 .25300003 .688 .211 .688 C .15100001 .688 .07800001 .66200008 .037000006 .56900009 C .0050000029 .5 0 .42200003 0 .34200005 C 0 .26700003 .0040000008 .177 .045000007 .101 C .088 .020000002 .161 0 .21000001 0 C .264 0 .34 .021000002 .384 .116000007 C .416 .185 .421 .263 .421 .34200005 M .21000001 .022000002 C .171 .022000002 .112 .047000003 .094 .143 C .083000008 .20300001 .083000008 .29500003 .083000008 .35400004 C .083000008 .41800005 .083000008 .48400004 .091000009 .53800007 C .11 .65700009 .185 .66600009 .21000001 .66600009 C .243 .66600009 .30900003 .64800009 .328 .549 C .338 .49300004 .338 .41700004 .338 .35400004 C .338 .279 .338 .21100001 .32700003 .147 C .312 .052 .255 .022000002 .21000001 .022000002 Z "/>
</symbol>
<use xlink:href="#font_1_4" transform="matrix(9.9626,0,0,-9.9626,87.58767,9.740967)"/>
<use xlink:href="#font_1_3" transform="matrix(9.9626,0,0,-9.9626,92.07084,9.960144)"/>
<clipPath id="cp2">
<path transform="matrix(1,0,0,-1,.199,1431.981)" d="M 0 1171.4199 L 204.22338 1171.4199 L 204.22338 1425.4688 L 0 1425.4688 Z "/>
</clipPath>
<g clip-path="url(#cp2)">
<path transform="matrix(1,0,0,-1,.199,1431.981)" stroke-width="1.99255" stroke-linecap="butt" stroke-miterlimit="10" stroke-linejoin="miter" fill="none" stroke="#0000ff" d="M 81.68935 1397.2411 C 81.68935 1397.2411 82.50494 1398.3493 82.81819 1398.7583 C 83.13145 1399.1674 83.63382 1399.8042 83.94707 1400.1892 C 84.26031 1400.5744 84.76268 1401.1727 85.07593 1401.5339 C 85.38919 1401.895 85.89154 1402.4552 86.20479 1402.7924 C 86.51804 1403.1296 87.0204 1403.6513 87.33365 1403.9646 C 87.64691 1404.2778 88.14928 1404.7611 88.46252 1405.0505 C 88.77577 1405.3399 89.27814 1405.7848 89.5914 1406.0502 C 89.90465 1406.3157 90.407 1406.7222 90.72025 1406.9636 C 91.0335 1407.2052 91.53586 1407.5733 91.84912 1407.7909 C 92.16237 1408.0084 92.66473 1408.3381 92.97798 1408.5319 C 93.29123 1408.7255 93.7936 1409.0169 94.10686 1409.1865 C 94.4201 1409.3562 94.92247 1409.6093 95.23572 1409.755 C 95.54897 1409.9008 96.05132 1410.1154 96.36458 1410.2372 C 96.67783 1410.359 97.18019 1410.5353 97.49344 1410.6332 C 97.80669 1410.7311 98.30905 1410.8689 98.62231 1410.9429 C 98.93556 1411.0169 99.43793 1411.1163 99.75117 1411.1664 C 100.06444 1411.2164 100.56679 1411.2775 100.88004 1411.3036 C 101.19328 1411.3297 101.69565 1411.3524 102.0089 1411.3545 C 102.32216 1411.3567 102.82452 1411.3411 103.13777 1411.3193 C 103.45102 1411.2976 103.95338 1411.2434 104.26663 1411.1978 C 104.5799 1411.1521 105.08224 1411.0596 105.3955 1410.99 C 105.70874 1410.9204 106.2111 1410.7896 106.52435 1410.6959 C 106.83762 1410.6024 107.33998 1410.4332 107.65323 1410.3157 C 107.96648 1410.1983 108.46884 1409.9906 108.78209 1409.8493 C 109.09535 1409.7078 109.5977 1409.4618 109.91095 1409.2965 C 110.2242 1409.1311 110.72656 1408.8467 111.03983 1408.6575 C 111.35307 1408.4682 111.85544 1408.1454 112.16869 1407.9323 C 112.48193 1407.719 112.9843 1407.3579 113.29756 1407.1207 C 113.61081 1406.8836 114.11316 1406.484 114.4264 1406.2229 C 114.73965 1405.9619 115.24202 1405.5239 115.55528 1405.239 C 115.86853 1404.954 116.3709 1404.4777 116.68414 1404.1687 C 116.99739 1403.8598 117.49976 1403.3451 117.81302 1403.0122 C 118.12627 1402.6793 118.62863 1402.1264 118.94188 1401.7695 C 119.25514 1401.4127 119.75748 1400.8213 120.07074 1400.4404 C 120.38399 1400.0597 120.88635 1399.4299 121.1996 1399.0253 C 121.51286 1398.6206 122.01523 1397.9524 122.32848 1397.5238 C 122.64172 1397.0951 123.14409 1396.3886 123.45734 1395.936 C 123.7706 1395.4835 124.27295 1394.7387 124.5862 1394.2621 C 124.89944 1393.7857 125.40181 1393.0023 125.71506 1392.5018 C 126.02832 1392.0015 126.53067 1391.1797 126.84392 1390.6554 C 127.15717 1390.131 127.65953 1389.271 127.97278 1388.7227 C 128.28604 1388.1744 128.7884 1387.2759 129.10166 1386.7036 C 129.4149 1386.1315 129.91725 1385.1947 130.23052 1384.5985 C 130.54376 1384.0023 131.04613 1383.0271 131.35938 1382.407 C 131.67263 1381.787 132.17499 1380.7733 132.48825 1380.1293 C 132.8015 1379.4852 133.30385 1378.4334 133.6171 1377.7654 C 133.93035 1377.0974 134.43271 1376.0071 134.74597 1375.3152 C 135.05922 1374.6233 135.56157 1373.4945 135.87482 1372.7787 C 136.18807 1372.0629 136.69043 1370.8958 137.0037 1370.156 C 137.31694 1369.4163 137.8193 1368.2107 138.13256 1367.447 C 138.4458 1366.6834 138.94815 1365.4395 139.26142 1364.6519 C 139.57466 1363.8643 140.07703 1362.5819 140.39028 1361.7704 C 140.70354 1360.9589 141.20589 1359.6383 141.51914 1358.8029 C 141.83238 1357.9673 142.33475 1356.6083 142.648 1355.7488 C 142.96126 1354.8894 143.46363 1353.492 143.77687 1352.6087 C 144.09012 1351.7252 144.59247 1350.2896 144.90572 1349.3822 C 145.21898 1348.475 145.72135 1347.0007 146.03459 1346.0696 C 146.34784 1345.1383 146.8502 1343.6259 147.16345 1342.6707 C 147.47672 1341.7155 147.97907 1340.1646 148.29232 1339.1854 C 148.60556 1338.2063 149.10793 1336.617 149.42118 1335.614 C 149.73444 1334.611 150.23679 1332.9834 150.55004 1331.9564 C 150.86328 1330.9295 151.36565 1329.2633 151.67891 1328.2124 C 151.99216 1327.1615 152.49452 1325.4572 152.80777 1324.3823 C 153.12102 1323.3075 153.62337 1321.5647 153.93663 1320.466 C 154.24988 1319.3672 154.75225 1317.5859 155.06549 1316.4633 C 155.37874 1315.3406 155.88109 1313.521 156.19435 1312.3744 C 156.5076 1311.2278 157.00997 1309.3696 157.32321 1308.1991 C 157.63646 1307.0286 158.13883 1305.1323 158.45209 1303.9379 C 158.76534 1302.7434 159.26769 1300.8086 159.58094 1299.5901 C 159.8942 1298.3717 160.39655 1296.3986 160.70981 1295.1563 C 161.02306 1293.9138 161.52542 1291.9024 161.83867 1290.6361 C 162.15193 1289.3699 162.65428 1287.32 162.96753 1286.0297 C 163.28078 1284.7395 163.78314 1282.6513 164.09639 1281.3372 C 164.40966 1280.023 164.912 1277.8963 165.22525 1276.5582 C 165.5385 1275.2201 166.04087 1273.055 166.35411 1271.693 C 166.66738 1270.331 167.16974 1268.1276 167.48299 1266.7417 C 167.79624 1265.3557 168.29859 1263.1139 168.61183 1261.704 C 168.9251 1260.2942 169.42746 1258.0142 169.7407 1256.5803 C 170.05396 1255.1466 170.5563 1252.8279 170.86957 1251.3701 C 171.18282 1249.9124 171.68518 1247.5553 171.99843 1246.0736 C 172.31168 1244.5919 172.81404 1242.1967 173.1273 1240.6912 C 173.44055 1239.1856 173.9429 1236.7518 174.25615 1235.2223 C 174.5694 1233.6928 175.07176 1231.2207 175.38503 1229.6672 C 175.69828 1228.1138 176.20064 1225.6032 176.51389 1224.0258 C 176.82714 1222.4483 177.32949 1219.8995 177.64275 1218.2982 C 177.956 1216.6969 178.45836 1214.1096 178.7716 1212.4844 C 179.08486 1210.859 179.5872 1208.2334 179.90047 1206.5841 C 180.21372 1204.9349 180.71608 1202.2711 181.02933 1200.598 C 181.34259 1198.9249 181.84496 1196.2224 182.1582 1194.5253 C 182.47145 1192.8283 182.9738 1190.0874 183.28705 1188.3665 C 183.60031 1186.6454 184.10268 1183.8663 184.41593 1182.1215 C 184.72917 1180.3765 185.23152 1177.559 185.54477 1175.79 C 185.85803 1174.0213 186.3604 1171.1654 186.67365 1169.3726 C 186.9869 1167.5797 187.48926 1164.6854 187.8025 1162.8687 C 188.11577 1161.0519 188.61812 1158.1192 188.93137 1156.2785 C 189.24462 1154.4378 189.74698 1151.4669 190.06023 1149.6023 C 190.37349 1147.7377 190.87586 1144.7282 191.1891 1142.8396 C 191.50235 1140.951 192.0047 1137.9035 192.31797 1135.991 C 192.63121 1134.0784 193.13358 1130.9922 193.44683 1129.0557 C 193.76007 1127.1193 194.26242 1123.9946 194.57569 1122.0343 C 194.88893 1120.074 195.3913 1116.9113 195.70455 1114.927 C 196.01779 1112.9428 196.52016 1109.7413 196.83342 1107.7332 C 197.14667 1105.7249 197.64902 1102.4852 197.96227 1100.4531 C 198.27552 1098.4209 198.77788 1095.1428 199.09114 1093.0867 C 199.40439 1091.0307 199.90674 1087.7142 200.21999 1085.6342 C 200.53325 1083.5542 201.0356 1080.1995 201.34886 1078.0955 C 201.66211 1075.9916 202.16448 1072.5982 202.47772 1070.4703 C 202.79099 1068.3424 203.29334 1064.9109 203.60659 1062.7592 C 203.91983 1060.6073 204.4222 1057.1373 204.73545 1054.9616 C 205.0487 1052.7858 205.55107 1049.2774 205.86432 1047.0776 C 206.17757 1044.8779 206.67992 1041.3313 206.99317 1039.1077 C 207.30643 1036.884 207.80879 1033.299 208.12204 1031.0515 C 208.43529 1028.804 208.93764 1025.1804 209.25089 1022.90896 C 209.56415 1020.6374 210.06652 1016.97549 210.37976 1014.68 C 210.69301 1012.3846 211.19538 1008.6843 211.50864 1006.365 C 211.82189 1004.04568 212.32424 1000.30709 212.63748 997.9638 C 212.95073 995.6205 213.4531 991.84347 213.76636 989.47628 C 214.0796 987.1091 214.58196 983.2937 214.8952 980.9026 C 215.20845 978.5114 215.71082 974.6576 216.02408 972.2425 C 216.33733 969.8274 216.83969 965.9351 217.15294 963.4961 C 217.46619 961.0571 217.96854 957.1267 218.2818 954.66378 C 218.59505 952.2008 219.09741 948.23178 219.41066 945.7448 C 219.72393 943.258 220.22628 939.2508 220.53954 936.74 C 220.85279 934.22927 221.35514 930.18356 221.66838 927.6488 C 221.98165 925.1141 222.48401 921.0299 222.79726 918.47128 C 223.1105 915.9126 223.61286 911.79019 223.9261 909.2076 C 224.23937 906.62496 224.74173 902.46408 225.05498 899.8575 C 225.36823 897.251 225.87059 893.0518 226.18384 890.4213 C 226.4971 887.7908 226.99945 883.55319 227.3127 880.89877 C 227.62595 878.2443 228.12831 873.9683 228.44156 871.29006 C 228.75482 868.6117 229.25717 864.2974 229.57042 861.59518 C 229.88367 858.8929 230.38603 854.54 230.6993 851.8137 C 231.01255 849.0875 231.51491 844.6965 231.82816 841.94638 C 232.1414 839.1962 232.64376 834.7667 232.95702 831.9927 C 233.27027 829.21859 233.77263 824.7506 234.08588 821.9526 C 234.39913 819.1546 234.90149 814.6485 235.21475 811.8266 C 235.528 809.0047 236.03035 804.4599 236.3436 801.614 C 236.65685 798.7681 237.15921 794.1853 237.47248 791.3155 C 237.78572 788.44577 238.28807 783.8242 238.60132 780.9304 C 238.91457 778.0366 239.41693 773.3767 239.7302 770.459 C 240.04344 767.54129 240.5458 762.8432 240.85906 759.9016 C 241.17232 756.95999 241.67467 752.2234 241.98792 749.2579 C 242.30117 746.29238 242.80353 741.5177 243.11678 738.52828 C 243.43004 735.53878 243.93239 730.7252 244.24564 727.7118 C 244.55889 724.6983 245.06125 719.84658 245.3745 716.8092 C 245.68776 713.77188 246.19013 708.88198 246.50337 705.8207 C 246.81662 702.7594 247.31897 697.83078 247.63222 694.74557 C 247.94548 691.6604 248.44785 686.6939 248.7611 683.5848 C 249.07434 680.47567 249.5767 675.47036 249.88996 672.33718 C 250.20322 669.20407 250.70557 664.1602 251.01882 661.00326 C 251.33206 657.8462 251.83443 652.76449 252.14769 649.58358 C 252.46094 646.40267 252.96329 641.28219 253.27654 638.0773 C 253.58979 634.87246 254.09215 629.714 254.40541 626.48519 C 254.71866 623.25637 255.22103 618.05899 255.53427 614.80618 C 255.84752 611.5534 256.34989 606.31796 256.66313 603.04129 C 256.97639 599.7646 257.47874 594.4909 257.792 591.19027 C 258.10527 587.88967 258.6076 582.57717 258.92085 579.2526 C 259.2341 575.9281 259.73649 570.57778 260.0497 567.2293 C 260.36299 563.88088 260.86534 558.49166 261.1786 555.1192 C 261.49186 551.7467 261.9942 546.3193 262.30744 542.9229 C 262.6207 539.5266 263.12306 534.06106 263.4363 530.64077 C 263.74958 527.22048 264.25193 521.716 264.56517 518.2718 C 264.87843 514.8276 265.38078 509.28523 265.69404 505.8171 C 266.0073 502.34895 266.50965 496.7679 266.82289 493.27583 C 267.13615 489.78376 267.6385 484.16444 267.95176 480.6484 C 268.265 477.13243 268.76737 471.47483 269.0806 467.93489 C 269.3939 464.39494 269.89625 458.69886 270.2095 455.13496 C 270.52275 451.57109 271.0251 445.8367 271.33836 442.2489 C 271.6516 438.6611 272.15397 432.88829 272.46723 429.2765 C 272.78047 425.6647 273.2828 419.8534 273.59608 416.2177 C 273.90934 412.58204 274.41169 406.73265 274.72496 403.073 C 275.03819 399.4134 275.54054 393.52528 275.8538 389.84175 C 276.16706 386.1582 276.6694 380.232 276.98265 376.5245 C 277.2959 372.81706 277.79826 366.8522 278.11155 363.12077 C 278.42478 359.3893 278.92716 353.38615 279.2404 349.63084 C 279.55366 345.8755 280.05598 339.83427 280.36927 336.055 C 280.6825 332.27568 281.18486 326.19554 281.4981 322.39234 C 281.81138 318.5891 282.31373 312.47114 282.62699 308.64399 C 282.94023 304.81687 283.44258 298.66017 283.75584 294.80906 C 284.0691 290.95793 284.57148 284.76277 284.8847 280.88777 C 285.19795 277.01277 285.7003 270.7797 286.01356 266.88075 C 286.3268 262.98185 286.8292 256.70985 287.14244 252.78697 C 287.45567 248.86409 287.95805 242.55405 288.2713 238.60726 C 288.58457 234.66045 289.0869 228.31195 289.40016 224.34117 C 289.7134 220.37038 290.21577 213.9832 290.52903 209.98851 C 290.8423 205.9938 291.34465 199.56874 291.65788 195.55014 C 291.97114 191.53154 292.47349 185.06772 292.78675 181.02519 C 293.09999 176.98267 293.60237 170.4808 293.9156 166.41434 C 294.22886 162.34787 294.7312 155.80733 295.04447 151.71688 C 295.3577 147.62642 295.86009 141.04741 296.1733 136.93308 C 296.48658 132.81874 296.98893 126.20183 297.3022 122.06357 C 297.61543 117.9253 298.1178 111.26945 298.43107 107.10725 C 298.7443 102.94504 299.24668 96.25133 299.5599 92.06523 C 299.87318 87.87912 300.37553 81.14676 300.68879 76.93663 C 301.00205 72.7265 301.5044 65.95547 301.81764 61.72147 C 302.1309 57.48746 302.63328 50.67871 302.9465 46.42079 C 303.25978 42.16289 303.76213 35.31522 304.07536 31.03334 C 304.3886 26.75146 304.891 19.86575 305.20423 15.55995 C 305.5175 11.25414 306.33308 0 306.33308 0 "/>
</g>
<symbol id="font_3_2">
<path d="M .18300002 .411 L .277 .411 C .29700003 .411 .307 .411 .307 .43100003 C .307 .44200004 .29700003 .44200004 .279 .44200004 L .19100002 .44200004 C .227 .584 .23200003 .60400006 .23200003 .61 C .23200003 .62700006 .22000002 .637 .20300001 .637 C .2 .637 .172 .636 .163 .601 L .124 .44200004 L .030000002 .44200004 C .009999998 .44200004 0 .44200004 0 .42300005 C 0 .411 .007999999 .411 .028 .411 L .11600001 .411 C .044 .127 .04 .11000001 .04 .092 C .04 .038000004 .078 0 .132 0 C .234 0 .291 .14600002 .291 .15400002 C .291 .16400002 .28300003 .16400002 .279 .16400002 C .27 .16400002 .26900003 .16100002 .264 .15000002 C .22100002 .046 .16800002 .022000002 .134 .022000002 C .113000009 .022000002 .103 .035 .103 .068 C .103 .092 .105000007 .09900001 .109 .116000007 L .18300002 .411 Z "/>
</symbol>
<use xlink:href="#font_3_2" transform="matrix(9.9626,0,0,-9.9626,197.57515,143.99156)"/>
<symbol id="font_3_1">
<path d="M .314 .605 L .4 .605 C .42000003 .605 .43 .605 .43 .625 C .43 .63600006 .42000003 .63600006 .40300004 .63600006 L .32000003 .63600006 L .34100003 .75 C .34500004 .771 .35900004 .842 .365 .8540001 C .374 .873 .39100004 .888 .41200004 .888 C .416 .888 .44200004 .888 .461 .87 C .41700004 .86600008 .407 .8310001 .407 .816 C .407 .793 .425 .781 .444 .781 C .47 .781 .49900005 .8030001 .49900005 .8410001 C .49900005 .8870001 .45300005 .9100001 .41200004 .9100001 C .37800003 .9100001 .31500004 .8920001 .28500004 .793 C .279 .7720001 .27600003 .7620001 .252 .63600006 L .18300002 .63600006 C .164 .63600006 .15300001 .63600006 .15300001 .61700007 C .15300001 .605 .162 .605 .18100001 .605 L .24700001 .605 L .172 .21000001 C .15400002 .113000009 .13700001 .022 .08500001 .022 C .081 .022 .056 .022 .037 .040000008 C .083000008 .043000014 .09200001 .07900001 .09200001 .094000007 C .09200001 .117000009 .074 .12900001 .055 .12900001 C .029 .12900001 0 .10700001 0 .069000009 C 0 .024000004 .044 0 .08500001 0 C .14 0 .18 .059 .19800002 .09700001 C .23000002 .16000001 .25300003 .28100003 .254 .28800003 L .314 .605 Z "/>
</symbol>
<use xlink:href="#font_3_1" transform="matrix(9.9626,0,0,-9.9626,106.37101,19.226309)"/>
<symbol id="font_1_1">
<path d="M .23200003 .00999999 C .23200003 .012999982 .23200003 .014999986 .215 .03199999 C .09 .15799999 .058 .347 .058 .5 C .058 .674 .096 .84800007 .21900001 .97300007 C .23200003 .985 .23200003 .98700007 .23200003 .99 C .23200003 .99700006 .22800002 1 .222 1 C .21200001 1 .12200001 .93200007 .06299999 .805 C .012000002 .69500008 0 .584 0 .5 C 0 .422 .011 .301 .066 .188 C .126 .065 .21200001 0 .222 0 C .22800002 0 .23200003 .0029999912 .23200003 .00999999 Z "/>
</symbol>
<use xlink:href="#font_1_1" transform="matrix(9.9626,0,0,-9.9626,112.77929,19.674626)"/>
<use xlink:href="#font_3_2" transform="matrix(9.9626,0,0,-9.9626,115.89713,17.293564)"/>
<symbol id="font_1_2">
<path d="M .232 .5 C .232 .578 .22100002 .699 .16600001 .81200006 C .106 .93500009 .020000004 1 .009999998 1 C .0040000008 1 0 .99600008 0 .99 C 0 .98700007 0 .985 .019000002 .967 C .117000009 .86800006 .174 .709 .174 .5 C .174 .329 .137 .153 .012999997 .026999996 C 0 .014999986 0 .012999982 0 .00999999 C 0 .003999993 .0040000008 0 .009999998 0 C .020000004 0 .11000001 .06799999 .169 .195 C .22 .305 .232 .416 .232 .5 Z "/>
</symbol>
<use xlink:href="#font_1_2" transform="matrix(9.9626,0,0,-9.9626,119.83286,19.674626)"/>
</g>
</svg>
